<svg width="38" height="38" viewBox="0 0 38 38" fill="none" xmlns="http://www.w3.org/2000/svg">
<g clip-path="url(#clip0_43_1933)">
<path d="M29.4707 0H8.52927C3.81868 0 0 3.81868 0 8.52927V29.4707C0 34.1813 3.81868 38 8.52927 38H29.4707C34.1813 38 38 34.1813 38 29.4707V8.52927C38 3.81868 34.1813 0 29.4707 0Z" fill="#4C76BE"/>
<path fill-rule="evenodd" clip-rule="evenodd" d="M22.1919 12.228H24.3637V8.89786C24.0215 8.89786 23.6661 8.81888 23.3107 8.79256H21.3495C20.3621 8.78692 19.397 9.08566 18.5854 9.64812C18.136 9.97355 17.7565 10.3859 17.4693 10.8607C17.1822 11.3355 16.9933 11.8631 16.9138 12.4122C16.8396 12.8825 16.8 13.3577 16.7953 13.8338V16.3478H13.6232V20.0465H16.7822V29.3523H20.6388V20.0333H23.7846L24.2716 16.3083H20.6124V13.6758C20.6782 12.5833 21.3232 12.2543 22.1919 12.228Z" fill="white"/>
</g>
<defs>
<clipPath id="clip0_43_1933">
<rect width="38" height="38" fill="white"/>
</clipPath>
</defs>
</svg>
